<?xml version="1.0" ?><svg data-name="Layer 1" id="Layer_1" viewBox="0 0 32 32" xmlns="http://www.w3.org/2000/svg"><defs><style>.cls-1{fill:#ba63c6;}</style></defs><title/><path class="cls-1" d="M21.54,2A7.12,7.12,0,0,0,16,5a7.12,7.12,0,0,0-5.54-3C4.45,2,1,6,1,13c0,3.9,2.4,8.09,7.14,12.47A49.23,49.23,0,0,0,15,30.7a2,2,0,0,0,2.1,0,49.23,49.23,0,0,0,6.81-5.23C28.6,21.09,31,16.9,31,13,31,6,27.55,2,21.54,2ZM16,26.62C12.17,24,5,18.13,5,13c0-6.2,2.92-7,5.46-7,1.85,0,3.3,2.74,3.66,3.69a2,2,0,0,0,3.75,0C18.16,8.91,19.63,6,21.54,6,24.08,6,27,6.8,27,13,27,18.11,19.83,24,16,26.62Z"/></svg>